<svg width="28" height="29" viewBox="0 0 28 29" fill="none" xmlns="http://www.w3.org/2000/svg">
<path d="M14.8758 28.5H13.1258C12.784 28.4579 12.4417 28.4213 12.101 28.3726C9.33443 27.9772 6.88283 26.8786 4.78561 25.0291C2.33183 22.8641 0.798969 20.1665 0.218746 16.9401C0.125779 16.4222 0.072733 15.8972 0 15.3755V13.6256C0.040468 13.2925 0.0754679 12.9584 0.121951 12.6265C0.522256 9.77956 1.66739 7.27114 3.59782 5.1406C5.76012 2.75358 8.4332 1.26341 11.6154 0.711086C12.1158 0.624683 12.6216 0.56945 13.1247 0.5H14.8747C14.9436 0.519692 15.0138 0.534674 15.0847 0.544842C17.1989 0.704523 19.184 1.29622 21.0007 2.38227C24.709 4.59867 26.9867 7.83221 27.7851 12.0878C27.8802 12.5959 27.9295 13.1126 28 13.6256V15.3755C27.9801 15.4448 27.9649 15.5153 27.9546 15.5866C27.7692 17.9966 27.0249 20.2201 25.6704 22.2205C23.4392 25.5186 20.3598 27.5507 16.4382 28.2824C15.9225 28.3786 15.397 28.43 14.8758 28.5ZM20.9914 9.95072C20.9799 9.26278 20.7355 8.98936 20.0568 9.03748C19.7036 9.06495 19.3565 9.14589 19.0276 9.27755C16.6761 10.2072 14.3191 11.1226 11.9933 12.1124C9.80145 13.0459 7.64571 14.0631 5.47739 15.0496C5.25865 15.1491 4.97865 15.2421 4.9885 15.539C4.99834 15.8234 5.26193 15.9426 5.48833 16.0252C6.36605 16.3473 7.24158 16.6814 8.13898 16.9412C8.88326 17.1544 9.61552 17.0401 10.2789 16.5895C12.0722 15.3744 13.8701 14.1657 15.6726 12.9633C15.9533 12.7782 16.2439 12.6087 16.5432 12.4553C16.6258 12.4127 16.7466 12.4422 16.8494 12.4384C16.8496 12.5502 16.8397 12.6619 16.8199 12.7719C16.803 12.8359 16.7362 12.889 16.6859 12.9409C16.4382 13.1952 16.197 13.4572 15.9378 13.7C14.8074 14.7587 13.6661 15.8059 12.5429 16.8717C12.3326 17.0718 12.1581 17.3066 12.0272 17.5657C11.7926 18.0338 11.9129 18.4013 12.346 18.696C13.9866 19.8123 15.629 20.927 17.2733 22.04C17.3777 22.1126 17.4919 22.1702 17.6123 22.2112C18.3741 22.4578 19.1042 21.9378 19.248 21.0628C19.6395 18.6829 20.047 16.3052 20.4265 13.9242C20.637 12.603 20.8044 11.2752 20.9914 9.95072Z" fill="url(#paint0_linear_39_1557)"/>
<defs>
<linearGradient id="paint0_linear_39_1557" x1="29.0385" y1="16.0306" x2="-0.464831" y2="14.4994" gradientUnits="userSpaceOnUse">
<stop stop-color="#2FA6DA"/>
<stop offset="1" stop-color="#239BCD"/>
</linearGradient>
</defs>
</svg>
